<?xml version="1.0" encoding="utf-8"?>
<!-- Generator: Adobe Illustrator 22.1.0, SVG Export Plug-In . SVG Version: 6.00 Build 0)  -->
<svg version="1.1" id="Layer_1" xmlns="http://www.w3.org/2000/svg"
     xmlns:xlink="http://www.w3.org/1999/xlink"
     viewBox="500 0 600 1200" xml:space="preserve">
  <link xmlns="http://www.w3.org/1999/xhtml" rel="stylesheet" href="https://fonts.googleapis.com/css?family=Lato" type="text/css"/>
  <style type="text/css">
    
	.st0{fill:#DD4242;}
	.st1{fill:#EBEBEB;}
	.st2{fill:none;}
	.st3{clip-path:url(#SVGID_3_);}
	.st4{clip-path:url(#SVGID_4_);fill:none;}
	.st5{clip-path:url(#SVGID_4_);}
	.st6{clip-path:url(#SVGID_7_);}
	.st7{clip-path:url(#SVGID_8_);fill:none;}
	.st8{fill:#BDB6B6;}
	.st9{font-family:'Lato';}
	.st10{font-size:5px;}
	.st11{clip-path:url(#SVGID_11_);}
	.st12{clip-path:url(#SVGID_12_);fill:none;}
	.st13{clip-path:url(#SVGID_12_);}
	.st14{clip-path:url(#SVGID_15_);}
	.st15{clip-path:url(#SVGID_16_);fill:none;}
	.st16{clip-path:url(#SVGID_19_);}
	.st17{clip-path:url(#SVGID_20_);fill:none;}
	.st18{clip-path:url(#SVGID_20_);}
	.st19{clip-path:url(#SVGID_23_);}
	.st20{clip-path:url(#SVGID_24_);fill:none;}
	.st21{clip-path:url(#SVGID_27_);}
	.st22{clip-path:url(#SVGID_28_);fill:none;}
	.st23{clip-path:url(#SVGID_28_);}
	.st24{clip-path:url(#SVGID_31_);}
	.st25{clip-path:url(#SVGID_32_);fill:none;}
	.st26{clip-path:url(#SVGID_35_);}
	.st27{clip-path:url(#SVGID_36_);}
	.st28{clip-path:url(#SVGID_39_);}
	.st29{clip-path:url(#SVGID_40_);fill:none;}
	.st30{clip-path:url(#SVGID_43_);}
	.st31{clip-path:url(#SVGID_44_);}
	.st32{clip-path:url(#SVGID_47_);}
	.st33{clip-path:url(#SVGID_48_);fill:none;}
	.st34{fill:#FFFFFF;}
	.st35{font-family:Lato;}
	.st36{font-size:4px;}
	.st37{fill:none;stroke:#020000;}
	* { font-family: Lato }
</style>
<g transform="scale(3 3)">
<rect x="53.6" y="59" class="st0" width="60" height="12"/>
<rect x="53.6" y="71" class="st1" width="60" height="30"/>
<path class="st2" d="z"/>
<g>
	<defs>
		<polygon id="SVGID_1_" points="53.8,71.2 54.1,71.2 53.8,71.5 		"/>
	</defs>
	<defs>
		<polygon id="SVGID_2_" points="53.3,70.7 53.1,70.7 53.3,70.5 		"/>
	</defs>
	<clipPath id="SVGID_3_">
		<use xlink:href="#SVGID_1_"  style="overflow:visible;"/>
	</clipPath>
	<clipPath id="SVGID_4_" class="st3">
		<use xlink:href="#SVGID_2_"  style="overflow:visible;"/>
	</clipPath>
	<path class="st4" d="z"/>
	<g class="st5">
		<defs>
			<polygon id="SVGID_5_" points="53.8,71.2 54.1,71.2 53.8,71.5 			"/>
		</defs>
		<defs>
			<polygon id="SVGID_6_" points="53.3,70.7 53.1,70.7 53.3,70.5 			"/>
		</defs>
		<clipPath id="SVGID_7_">
			<use xlink:href="#SVGID_5_"  style="overflow:visible;"/>
		</clipPath>
		<clipPath id="SVGID_8_" class="st6">
			<use xlink:href="#SVGID_6_"  style="overflow:visible;"/>
		</clipPath>
		<path class="st7" d="z"/>
	</g>
	<path class="st4" d="z"/>
</g>
<rect x="56.4" y="101" class="st8" width="5" height="5"/>
<text transform="matrix(1 0 0 1 56.5833 66.5001)" class="st9 st10">create rectangle</text>
<rect x="152.9" y="126" class="st0" width="60" height="12"/>
<rect x="152.9" y="138" class="st1" width="60" height="30"/>
<path class="st2" d="z"/>
<g>
	<defs>
		<polygon id="SVGID_9_" points="153.1,138.2 153.4,138.2 153.1,138.5 		"/>
	</defs>
	<defs>
		<polygon id="SVGID_10_" points="152.6,137.8 152.4,137.8 152.6,137.5 		"/>
	</defs>
	<clipPath id="SVGID_11_">
		<use xlink:href="#SVGID_9_"  style="overflow:visible;"/>
	</clipPath>
	<clipPath id="SVGID_12_" class="st11">
		<use xlink:href="#SVGID_10_"  style="overflow:visible;"/>
	</clipPath>
	<path class="st12" d="z"/>
	<g class="st13">
		<defs>
			<polygon id="SVGID_13_" points="153.1,138.2 153.4,138.2 153.1,138.5 			"/>
		</defs>
		<defs>
			<polygon id="SVGID_14_" points="152.6,137.8 152.4,137.8 152.6,137.5 			"/>
		</defs>
		<clipPath id="SVGID_15_">
			<use xlink:href="#SVGID_13_"  style="overflow:visible;"/>
		</clipPath>
		<clipPath id="SVGID_16_" class="st14">
			<use xlink:href="#SVGID_14_"  style="overflow:visible;"/>
		</clipPath>
		<path class="st15" d="z"/>
	</g>
	<path class="st12" d="z"/>
</g>
<rect x="157" y="121" class="st8" width="5" height="5"/>
<rect x="155.7" y="168" class="st8" width="5" height="5"/>
<text transform="matrix(1 0 0 1 155.8603 133.5001)" class="st9 st10">fill</text>
<rect x="102.4" y="212.3" class="st0" width="60" height="12"/>
<rect x="102.4" y="224.3" class="st1" width="60" height="30"/>
<path class="st2" d="z"/>
<g>
	<defs>
		<polygon id="SVGID_17_" points="102.6,224.6 102.9,224.6 102.6,224.8 		"/>
	</defs>
	<defs>
		<polygon id="SVGID_18_" points="102.1,224.1 101.9,224.1 102.1,223.8 		"/>
	</defs>
	<clipPath id="SVGID_19_">
		<use xlink:href="#SVGID_17_"  style="overflow:visible;"/>
	</clipPath>
	<clipPath id="SVGID_20_" class="st16">
		<use xlink:href="#SVGID_18_"  style="overflow:visible;"/>
	</clipPath>
	<path class="st17" d="z"/>
	<g class="st18">
		<defs>
			<polygon id="SVGID_21_" points="102.6,224.6 102.9,224.6 102.6,224.8 			"/>
		</defs>
		<defs>
			<polygon id="SVGID_22_" points="102.1,224.1 101.9,224.1 102.1,223.8 			"/>
		</defs>
		<clipPath id="SVGID_23_">
			<use xlink:href="#SVGID_21_"  style="overflow:visible;"/>
		</clipPath>
		<clipPath id="SVGID_24_" class="st19">
			<use xlink:href="#SVGID_22_"  style="overflow:visible;"/>
		</clipPath>
		<path class="st20" d="z"/>
	</g>
	<path class="st17" d="z"/>
</g>
<rect x="106.5" y="207.3" class="st8" width="5" height="5"/>
<rect x="105.2" y="254.3" class="st8" width="5" height="5"/>
<text transform="matrix(1 0 0 1 105.3603 219.8335)" class="st9 st10">multiply</text>
<rect x="253.2" y="47.7" class="st0" width="60" height="12"/>
<rect x="253.2" y="59.7" class="st1" width="60" height="30"/>
<path class="st2" d="z"/>
<g>
	<defs>
		<polygon id="SVGID_25_" points="253.5,59.9 253.8,59.9 253.5,60.2 		"/>
	</defs>
	<defs>
		<polygon id="SVGID_26_" points="253,59.4 252.8,59.4 253,59.2 		"/>
	</defs>
	<clipPath id="SVGID_27_">
		<use xlink:href="#SVGID_25_"  style="overflow:visible;"/>
	</clipPath>
	<clipPath id="SVGID_28_" class="st21">
		<use xlink:href="#SVGID_26_"  style="overflow:visible;"/>
	</clipPath>
	<path class="st22" d="z"/>
	<g class="st23">
		<defs>
			<polygon id="SVGID_29_" points="253.5,59.9 253.8,59.9 253.5,60.2 			"/>
		</defs>
		<defs>
			<polygon id="SVGID_30_" points="253,59.4 252.8,59.4 253,59.2 			"/>
		</defs>
		<clipPath id="SVGID_31_">
			<use xlink:href="#SVGID_29_"  style="overflow:visible;"/>
		</clipPath>
		<clipPath id="SVGID_32_" class="st24">
			<use xlink:href="#SVGID_30_"  style="overflow:visible;"/>
		</clipPath>
		<path class="st25" d="z"/>
	</g>
	<path class="st22" d="z"/>
</g>
<rect x="256" y="89.7" class="st8" width="5" height="5"/>
<text transform="matrix(1 0 0 1 256.25 55.1668)" class="st9 st10">select shape</text>
<rect x="213.4" y="284.2" class="st0" width="60" height="12"/>
<rect x="213.4" y="296.2" class="st1" width="60" height="30"/>
<g>
	<g>
		<path class="st2" d="z"/>
		<g>
			<defs>
				<polygon id="SVGID_33_" points="213.6,296.4 213.9,296.4 213.6,296.7 				"/>
			</defs>
			<defs>
				<polygon id="SVGID_34_" points="213.1,295.9 212.9,295.9 213.1,295.7 				"/>
			</defs>
			<clipPath id="SVGID_35_">
				<use xlink:href="#SVGID_33_"  style="overflow:visible;"/>
			</clipPath>
			<clipPath id="SVGID_36_" class="st26">
				<use xlink:href="#SVGID_34_"  style="overflow:visible;"/>
			</clipPath>
			<g class="st27">
				<path class="st2" d="z"/>
				<g>
					<defs>
						<polygon id="SVGID_37_" points="213.6,296.4 213.9,296.4 213.6,296.7 						"/>
					</defs>
					<defs>
						<polygon id="SVGID_38_" points="213.1,295.9 212.9,295.9 213.1,295.7 						"/>
					</defs>
					<clipPath id="SVGID_39_">
						<use xlink:href="#SVGID_37_"  style="overflow:visible;"/>
					</clipPath>
					<clipPath id="SVGID_40_" class="st28">
						<use xlink:href="#SVGID_38_"  style="overflow:visible;"/>
					</clipPath>
					<path class="st29" d="z"/>
				</g>
				<path class="st2" d="z"/>
			</g>
		</g>
		<rect x="217.5" y="279.2" class="st8" width="5" height="5"/>
		<rect x="216.2" y="326.2" class="st8" width="5" height="5"/>
		<rect x="226.1" y="279.2" class="st8" width="5" height="5"/>
		<g transform="matrix(1,0,0,1,112,112)">
			<text transform="matrix(1 0 0 1 104.3603 179.6668)" class="st9 st10">positionAlong</text>
		</g>
	</g>
</g>
<rect x="113.1" y="347" class="st0" width="60" height="12"/>
<rect x="113.1" y="359" class="st1" width="60" height="30"/>
<path class="st2" d="z"/>
<g>
	<defs>
		<polygon id="SVGID_41_" points="113.3,359.2 113.6,359.2 113.3,359.5 		"/>
	</defs>
	<defs>
		<polygon id="SVGID_42_" points="112.8,358.8 112.6,358.8 112.8,358.5 		"/>
	</defs>
	<clipPath id="SVGID_43_">
		<use xlink:href="#SVGID_41_"  style="overflow:visible;"/>
	</clipPath>
	<clipPath id="SVGID_44_" class="st30">
		<use xlink:href="#SVGID_42_"  style="overflow:visible;"/>
	</clipPath>
	<g class="st31">
		<path class="st2" d="z"/>
		<g>
			<defs>
				<polygon id="SVGID_45_" points="113.3,359.2 113.6,359.2 113.3,359.5 				"/>
			</defs>
			<defs>
				<polygon id="SVGID_46_" points="112.8,358.8 112.6,358.8 112.8,358.5 				"/>
			</defs>
			<clipPath id="SVGID_47_">
				<use xlink:href="#SVGID_45_"  style="overflow:visible;"/>
			</clipPath>
			<clipPath id="SVGID_48_" class="st32">
				<use xlink:href="#SVGID_46_"  style="overflow:visible;"/>
			</clipPath>
			<path class="st33" d="z"/>
		</g>
		<path class="st2" d="z"/>
	</g>
</g>
<rect x="117.2" y="342" class="st8" width="5" height="5"/>
<g transform="matrix(1,0,0,1,112,112)">
	<text transform="matrix(1 0 0 1 4.0702 242.5001)" class="st9 st10">render</text>
</g>
<rect x="132.4" y="226.9" class="st34" width="19.7" height="9.8"/>
<text transform="matrix(1 0 0 1 114.0833 233.1115)" class="st35 st36">count</text>
<rect x="278.2" y="65.6" class="st34" width="19.7" height="9.8"/>
<text transform="matrix(1 0 0 1 259.8921 71.8333)" class="st35 st36">id</text>
<text transform="matrix(1 0 0 1 281.0587 71.8335)" class="st35 st36">path</text>
<text transform="matrix(1 0 0 1 162.7254 153)" class="st35 st36">color</text>
<rect x="179.7" y="146.4" class="st34" width="19.7" height="9.8"/>
<text transform="matrix(1 0 0 1 183.8921 153.0002)" class="st35 st36">red</text>
<text transform="matrix(1 0 0 1 140 233.1115)" class="st35 st36">6</text>
<line class="st2" x1="61.4" y1="106" x2="157" y2="121"/>
<line class="st2" x1="256" y1="94.7" x2="162" y2="121"/>
<line class="st2" x1="131.9" y1="31.2" x2="194.3" y2="98.2"/>
<line class="st34" x1="78.5" y1="127.9" x2="111.7" y2="161.6"/>
<line class="st2" x1="165.3" y1="59" x2="135" y2="103.5"/>
<line class="st37" x1="61.4" y1="106" x2="157" y2="121"/>
<line class="st37" x1="256" y1="94.7" x2="231.1" y2="279.2"/>
<line class="st37" x1="155.7" y1="173" x2="111.5" y2="207.3"/>
<line class="st37" x1="110.2" y1="259.3" x2="217.5" y2="279.2"/>
<line class="st37" x1="216.2" y1="331.2" x2="122.2" y2="342"/>
</g></svg>
